<?xml version="1.0" encoding="utf-8"?>
<svg viewBox="-27.255 -86.26 868.233 868.043" xmlns="http://www.w3.org/2000/svg">
  <g transform="matrix(1, 0, 0, 1, 652.814026, 0)">
    <path d="M421.638,0l7.619,6a4.941,4.941,0,0,1,1.066,7.154,4.421,4.421,0,0,1-5.024,1.783l-.03.04c1.21,1.595.478,3.423-.546,4.923-.64.938-1.969,2.585-2.038,3.812l-3.107-2.446c.324-1.187,1.439-2.52,2.169-3.774.95-1.655.89-2.761-.671-3.99l-3.109-2.447-4.346,5.521-3.105-2.446Zm-1.925,8.838,3.4,2.681c1.385,1.089,2.605,1.088,3.727-.337,1.076-1.365.791-2.55-.594-3.641l-3.4-2.679Z" transform="translate(-410.515)" fill="#666"/>
    <path d="M435.073,10.651,445.111,19.6,442.9,22.084l-7.087-6.318-2.565,2.875,6.5,5.8-2.044,2.291-6.5-5.8-2.933,3.288,7.235,6.453-2.211,2.481L423.1,24.073Z" transform="translate(-401.972 7.228)" fill="#666"/>
    <path d="M439.765,31.024c-1.694,1.692-1.037,3.668.457,5.165.979.982,2.758,2.194,4.059.9,1.373-1.37-.3-3.508-1.667-5.879-1.385-2.389-2.557-5.024-.166-7.408,2.6-2.6,6.3-1.382,8.6.918,2.651,2.659,3.928,6.256.985,9.191l-2.7-2.709c1.447-1.62.754-3.1-.579-4.435-.891-.891-2.3-1.553-3.366-.485-.982.979-.5,1.707,1.862,5.719.693,1.157,2.949,4.6.06,7.478-2.333,2.33-5.914,2.236-9.365-1.224-2.81-2.818-4.051-6.844-.876-9.938Z" transform="translate(-393.771 15.16)" fill="#666"/>
    <path d="M458.132,32.609l2.654,2.929L447.464,47.608l-2.654-2.929Z" transform="translate(-387.241 22.13)" fill="#666"/>
    <path d="M457,49.407c-1.846,1.523-1.38,3.552-.037,5.185.883,1.069,2.538,2.444,3.958,1.276,1.5-1.234.034-3.52-1.1-6.01-1.153-2.51-2.068-5.244.535-7.393,2.837-2.335,6.407-.774,8.474,1.731,2.387,2.9,3.317,6.6.109,9.243L466.5,50.484c1.591-1.474,1.042-3.011-.158-4.469-.8-.972-2.137-1.763-3.3-.8-1.069.88-.661,1.655,1.313,5.869.579,1.22,2.5,4.858-.648,7.451-2.547,2.1-6.1,1.665-9.206-2.105-2.531-3.07-3.386-7.195.067-9.974Z" transform="translate(-382.172 28.04)" fill="#666"/>
    <path d="M474.018,58.307l-3.184-4.346L473.515,52l8.7,11.878-2.682,1.964L476.353,61.5l-11.819,8.657L462.2,66.965Z" transform="translate(-375.44 35.289)" fill="#666"/>
    <path d="M486.8,66.543l2.217,3.393-11.366,15.47L475.4,81.971l2.607-3.33-3.681-5.627-4.123,1.011-2.191-3.351Zm-9.439,5.722,2.55,3.9,4.281-5.506-.027-.044Z" transform="translate(-371.493 45.158)" fill="#666"/>
    <path d="M492.665,77.908l1.937,3.413L487.825,93.8l.025.042,10.485-5.954,1.828,3.216-15.628,8.88-1.952-3.438L489.351,84.1l-.025-.045L478.863,90l-1.828-3.218Z" transform="translate(-365.372 52.871)" fill="#666"/>
    <path d="M500.107,105.548a3.887,3.887,0,0,0,1.108-4.91c-1.556-3.193-4.86-3.07-7.69-1.689-2.694,1.313-4.824,3.839-3.268,7.03,1.059,2.174,3.149,2.666,5.409,1.9l1.679,3.441c-4.207,1.6-8.145.077-10.077-3.886-2.439-5-.138-9.768,4.524-12.041,4.8-2.34,9.973-1.217,12.412,3.785,1.732,3.554,1.106,7.559-2.417,9.812Z" transform="translate(-359.098 63.944)" fill="#666"/>
    <path d="M508.617,108.526l5.136,12.434-3.073,1.267-3.624-8.774-3.562,1.469,3.327,8.054-2.84,1.175-3.327-8.054-4.074,1.682,3.7,8.964-3.074,1.269L492,115.392Z" transform="translate(-355.219 73.649)" fill="#666"/>
  </g>
  <g transform="matrix(1, 0, 0, 1, 0, 10.015)">
    <path d="M0,126.03,4.873,113.5l3.1,1.205-3.441,8.846,3.592,1.395,3.158-8.118,2.862,1.115-3.158,8.116,4.106,1.6L18.6,118.62l3.1,1.207-4.947,12.716Z" transform="translate(0 67.008)" fill="#666"/>
    <path d="M5.924,111.925l1.643-3.565,14.1-1.766.02-.045L10.733,101.5l1.549-3.362,16.33,7.532-1.657,3.591-14.064,1.749-.02.047L23.8,116.095l-1.551,3.362Z" transform="translate(4.02 56.583)" fill="#666"/>
    <path d="M13.37,95.351l3.69-6.82c2.216-4.1,6.449-5.788,11.7-2.949,4.586,2.479,6.726,6.671,4.114,11.5L29.184,103.9Zm14.77,3.495,1.679-3.1c1.088-2.014.89-4.611-2.61-6.5-3.188-1.724-5.823-1.719-7.693,1.737l-1.341,2.479Z" transform="translate(9.073 47.108)" fill="#666"/>
    <path d="M39.35,74.075c4.119,2.575,4.6,6.261,2.053,10.339-2.562,4.1-6.043,5.246-10.181,2.656l-9.476-5.926,2.095-3.351,9.476,5.926c1.665,1.041,3.575,1.642,5.269-1.068,1.5-2.39.93-3.81-1.333-5.227L27.779,71.5l2.1-3.352Z" transform="translate(14.758 36.231)" fill="#666"/>
    <path d="M31.09,65.553l5.642-7.885a4.94,4.94,0,0,1,7.1-1.393,4.419,4.419,0,0,1,2.009,4.937l.042.029c1.538-1.284,3.4-.635,4.944.317.967.6,2.671,1.85,3.9,1.862l-2.3,3.216a19.873,19.873,0,0,1-3.869-1.994c-1.7-.875-2.8-.764-3.955.856l-2.3,3.216L48.016,72.8l-2.3,3.215Zm8.915,1.517,2.521-3.523c1.027-1.434.969-2.651-.505-3.7-1.413-1.014-2.585-.673-3.611.76l-2.521,3.523Z" transform="translate(21.099 27.531)" fill="#666"/>
    <path d="M42.957,46.849,45.509,43.7,63.7,49.8l-2.585,3.184L57.15,51.518,52.92,56.74l2.221,3.614-2.521,3.109Zm8.324,7.233,2.933-3.617-6.548-2.39-.032.039Z" transform="translate(29.152 19.643)" fill="#666"/>
    <path d="M51.6,39.823l2.657-2.892L68.2,39.573l.035-.037-8.872-8.163,2.5-2.721L75.1,40.817l-2.674,2.909L58.506,41.084l-.035.035,8.855,8.146-2.5,2.721Z" transform="translate(35.015 9.429)" fill="#666"/>
    <path d="M75.159,22.255a3.882,3.882,0,0,0-5.012.44c-2.565,2.452-1.442,5.558.734,7.833,2.068,2.165,5.122,3.426,7.686.974,1.747-1.67,1.581-3.81.165-5.729L81.5,23.126A7.593,7.593,0,0,1,80.863,33.9c-4.02,3.844-9.258,3.1-12.842-.645-3.688-3.856-4.193-9.122-.171-12.967,2.855-2.729,6.859-3.352,10.075-.682Z" transform="translate(44.138 2.13)" fill="#666"/>
    <path d="M76.014,14.655,86.279,5.966l2.147,2.54-7.247,6.132,2.489,2.941,6.649-5.628L92.3,14.3l-6.652,5.627L88.5,23.286l7.4-6.261,2.149,2.536L87.628,28.376Z" transform="translate(51.586 -5.966)" fill="#666"/>
  </g>
  <g transform="matrix(1, 0, 0, 1, 285.806, 747.005981)">
    <path d="M322.4,486.037l-5.454,1.108-6.582-11.28-.049.01-1.439,12.91-5.452,1.106-3.579-17.619,3.628-.738,2.535,12.489.049-.01,1.783-13.365,2.988-.606,6.829,11.487.049-.01-2.511-12.365,3.629-.735Z" transform="translate(-99.932 -464.012)" fill="#666"/>
    <path d="M300.387,489.719l-13.325,1.815-.448-3.3,9.407-1.281-.52-3.817-8.633,1.175-.415-3.047,8.635-1.175-.594-4.366-9.608,1.308-.448-3.3,13.526-1.842Z" transform="translate(-110.39 -461.649)" fill="#666"/>
    <path d="M279.55,488.511l5.373-.42.26,3.315L270.5,492.555l-.258-3.315,5.373-.42-1.143-14.611,3.941-.309Z" transform="translate(-120.027 -460.291)" fill="#666"/>
    <path d="M265.907,492.722l-4.054.1L254.7,475l4.106-.1,1.457,3.973,6.723-.163,1.313-4.037,4.005-.1Zm.112-11.037-4.658.111,2.426,6.542.052,0Z" transform="translate(-130.573 -459.831)" fill="#666"/>
    <path d="M253.867,492.871l-8.46-.294c-3.423-.121-5.7-1.311-5.583-4.658a3.944,3.944,0,0,1,2.572-3.664,4.4,4.4,0,0,1-3.137-4.673c.128-3.651,3.28-5.1,6.528-4.989l8.709.3Zm-3.431-15.04-4.23-.148c-1.561-.057-2.936.4-3,2.263-.065,1.838,1.068,2.609,2.755,2.667l4.307.151Zm-.267,7.626-4-.139c-1.385-.049-2.439.545-2.491,2.056-.06,1.712,1.237,2.11,2.647,2.159l3.7.129Z" transform="translate(-141.053 -459.826)" fill="#666"/>
    <path d="M229.743,492.037c-5.541-.547-8.391-5-7.869-10.319.509-5.163,4.176-8.981,9.716-8.433s8.393,5,7.885,10.166C238.949,488.765,235.283,492.583,229.743,492.037Zm1.521-15.445c-3.534-.347-5.16,2.531-5.454,5.516-.309,3.132.725,6.271,4.259,6.619s5.162-2.528,5.469-5.662C235.831,480.08,234.8,476.941,231.264,476.592Z" transform="translate(-152.889 -460.744)" fill="#666"/>
    <path d="M217.909,490.61l-3.9-.624,2.317-14.47-8.652-1.383.524-3.282,12.556,2.009Z" transform="translate(-162.487 -462.361)" fill="#666"/>
    <path d="M200.712,487.483l-3.873-.806,3.663-17.6,3.873.806Z" transform="translate(-169.837 -463.567)" fill="#666"/>
    <path d="M184.536,477.055a3.88,3.88,0,0,0,3,4.039c3.431.9,5.487-1.682,6.287-4.724.759-2.9.237-6.157-3.2-7.057-2.338-.614-4.074.648-4.965,2.86l-3.7-.97c1.526-4.232,5.249-6.221,9.508-5.1,5.38,1.41,7.492,6.256,6.174,11.27-1.351,5.163-5.571,8.349-10.95,6.936-3.822-1-6.449-4.082-5.857-8.222Z" transform="translate(-180.753 -465.793)" fill="#666"/>
  </g>
</svg>