<?xml version="1.0" encoding="utf-8"?>
<svg viewBox="-6.481 -17.282 1087 1087" xmlns="http://www.w3.org/2000/svg">
  <g transform="matrix(1, 0, 0, 1, 540, 533.531982)">
    <g transform="translate(-540 -533.532)">
      <path d="M49.83,603.738a477.158,477.158,0,0,1-9.9-96.968c0-254,199.346-461.448,450.123-474.416" transform="translate(23.402 18.964)" fill="none" stroke="#666" stroke-miterlimit="10" stroke-width="1.19"/>
      <path d="M960.3,420.521C900.157,613.9,719.777,754.313,506.6,754.313c-211.636,0-390.948-138.39-452.38-329.612" transform="translate(31.782 246.48)" fill="none" stroke="#666" stroke-miterlimit="10" stroke-width="1.19"/>
      <path d="M354.276,32.31C605.708,44.58,805.794,252.321,805.794,506.8a476.988,476.988,0,0,1-10.181,98.291" transform="translate(207.652 18.938)" fill="none" stroke="#666" stroke-miterlimit="10" stroke-width="1.19"/>
      <g transform="translate(0 17.354)">
        <path d="M6.484,297.91,5.4,306.669,0,306l2.955-23.946,5.4.668-1.08,8.759L31.1,294.424l-.795,6.425Z" transform="translate(0 147.969)" fill="#666"/>
        <path d="M3.969,277.632,7.2,262.086c1.075-5.168,5.35-7.691,9.71-6.784,3.391.707,5.648,2.608,6.278,6.067l.082.017c1.453-2.941,4.666-3.2,7.615-2.795,1.843.257,5.226,1,7.076.208l-1.32,6.34c-1.976.389-4.746-.271-7.115-.428-3.121-.187-4.7.707-5.36,3.9l-1.32,6.34,11.266,2.346-1.32,6.338Zm14.361-3.626,1.447-6.944c.587-2.826-.3-4.614-3.212-5.218-2.787-.579-4.317.7-4.906,3.529l-1.445,6.946Z" transform="translate(2.326 132.18)" fill="#666"/>
        <path d="M12.1,238.73,14,232.373l31.359-2.086-1.929,6.438-6.92.247-3.163,10.543,5.615,4.1-1.883,6.28Zm17.121,5.781,2.19-7.306-11.415.451-.021.079Z" transform="translate(7.089 117.625)" fill="#666"/>
        <path d="M19.425,215.714l2.281-6.059L49.252,220.03l-2.279,6.057Z" transform="translate(11.386 105.532)" fill="#666"/>
        <path d="M26.153,204.8l2.69-5.845,23.075-2.906.035-.075-17.944-8.256,2.536-5.505,26.742,12.305-2.706,5.88L37.56,203.287l-.036.076,17.9,8.238L52.9,217.107Z" transform="translate(15.329 89.449)" fill="#666"/>
        <path d="M39.279,171.715l3.115-5.677L68.21,180.207l-3.117,5.675Z" transform="translate(23.023 79.966)" fill="#666"/>
        <path d="M48.335,161.462l3.483-5.412,23.262.363.048-.07L58.518,145.65l3.28-5.1,24.758,15.942-3.505,5.444-23.207-.374-.043.07L76.376,172.3l-3.283,5.1Z" transform="translate(28.331 65.028)" fill="#666"/>
        <path d="M97.256,133.854a9.966,9.966,0,0,1-1.764,8.865c-5.593,7.2-14.255,7.263-20.967,2.051-6.908-5.361-9-13.771-3.405-20.972,3.694-4.757,10.116-6.977,15.823-3.434l-3.794,4.888a6.038,6.038,0,0,0-7.729,1.884c-3.566,4.6-1,9.357,3.076,12.518,3.878,3.012,9.13,4.319,12.7-.276,2.581-3.323,2.279-6.636-.718-9.433l-4,5.147-3.811-2.958,7.588-9.774,12.578,9.763-2.531,3.258Z" transform="translate(39.806 52.174)" fill="#666"/>
        <path d="M96.433,96.835l9.5-9.28c5.25-5.131,10.545-3.786,13.888-.362s4.565,8.746-.688,13.877l-4.868,4.755,7.379,7.555-4.635,4.525Zm14.316,5.391,3.6-3.518c2.154-2.1,3.612-4.449.988-7.134s-5-1.285-7.157.82l-3.6,3.516Z" transform="translate(56.522 31.972)" fill="#666"/>
        <path d="M116.974,78.722l5-4.11,7.174,8.733,9.209-7.566-7.171-8.733,5-4.11,18.693,22.756-5,4.111-8.064-9.817-9.214,7.566,8.065,9.817-5,4.111Z" transform="translate(68.562 19.536)" fill="#666"/>
        <path d="M144.843,52.807l5.474-3.753,25.729,18.064-5.545,3.8-5.545-4.149-9.081,6.224,1.8,6.714-5.412,3.705Zm9.7,15.249,6.294-4.313-9.171-6.814-.067.046Z" transform="translate(84.897 11.398)" fill="#666"/>
        <path d="M177.376,56.41c1.935,3.4,5.342,3.22,8.353,1.507,1.973-1.123,4.655-3.41,3.166-6.026-1.572-2.76-5.672-1.042-10.005.1-4.368,1.159-9.041,1.873-11.774-2.928-2.98-5.233.538-10.557,5.161-13.189,5.339-3.041,11.574-3.507,14.943,2.408l-5.45,3.1c-1.934-2.979-4.57-2.524-7.255-.993-1.791,1.021-3.442,2.957-2.219,5.106,1.125,1.972,2.484,1.529,9.839-.474,2.129-.595,8.535-2.677,11.84,3.128,2.671,4.695.98,10.307-5.972,14.266-5.661,3.225-12.557,3.448-16.077-2.9Z" transform="translate(97.306 2.385)" fill="#666"/>
        <path d="M188.894,28.887l19.955-9.307,2.3,4.931-14.088,6.573,2.666,5.718,12.93-6.032,2.127,4.559-12.932,6.032,3.052,6.54,14.386-6.711,2.3,4.933-20.255,9.447Z" transform="translate(110.717 -5.877)" fill="#666"/>
        <path d="M224.586,33.164c1.364,3.673,4.757,4.04,8,2.833,2.127-.79,5.144-2.616,4.1-5.437-1.107-2.976-5.431-1.943-9.893-1.516-4.5.439-9.225.393-11.152-4.789-2.1-5.643,2.235-10.332,7.22-12.185,5.761-2.141,11.991-1.6,14.361,4.782l-5.875,2.184c-1.431-3.253-4.1-3.228-7-2.151-1.934.72-3.875,2.363-3.014,4.684.791,2.127,2.206,1.91,9.786,1.115,2.2-.244,8.857-1.267,11.185,4.995,1.883,5.065-.693,10.334-8.192,13.12-6.108,2.27-12.949,1.382-15.4-5.452Z" transform="translate(126.077 -10.941)" fill="#666"/>
      </g>
      <g transform="translate(657.818)">
        <path d="M422.463,0l8.794,2.393,1.328,21.348.081.021,11.6-17.827,8.8,2.393-7.734,28.412-5.848-1.592,5.48-20.134-.079-.022L432.44,33.233l-4.817-1.312-1.537-21.83-.079-.022L420.581,30l-5.85-1.591Z" transform="translate(-414.731)" fill="#666"/>
        <path d="M468.168,12.751c8.525,3.229,11.13,11.492,8.032,19.67-3.007,7.947-10.432,12.413-18.956,9.185s-11.132-11.492-8.121-19.438C452.219,13.99,459.644,9.525,468.168,12.751Zm-9,23.762c5.439,2.062,9.236-1.8,10.974-6.384,1.826-4.822,1.534-10.224-3.905-12.285s-9.238,1.8-11.063,6.619C453.439,29.052,453.732,34.454,459.171,36.513Z" transform="translate(-395.279 6.855)" fill="#666"/>
        <path d="M483.723,54.466l-6.579-3.158,4.116-30.681,6.023,2.892-3.049,21.5.075.035,14.944-15.787,6.021,2.892Z" transform="translate(-378.149 12.09)" fill="#666"/>
        <path d="M511.237,33.747l19.018,11.111-2.747,4.7-13.425-7.843L510.9,47.162l12.323,7.2-2.539,4.343-12.319-7.2-3.642,6.232L518.43,65.75l-2.747,4.7-19.3-11.279Z" transform="translate(-366.873 19.78)" fill="#666"/>
        <path d="M535.8,48.191l7.417,5.3L537.05,73.972l.066.049,17.075-12.691,7.418,5.3L544.489,90.593l-4.933-3.524,12.132-16.983-.067-.048L533.614,82.823l-4.06-2.9,6.138-21.01-.067-.049L523.614,75.679l-4.935-3.524Z" transform="translate(-353.804 28.246)" fill="#666"/>
        <path d="M564.17,68.92l16.664,14.394-3.559,4.119L565.511,77.273l-4.125,4.774,10.8,9.326L568.9,95.18l-10.8-9.326-4.717,5.461,12.013,10.378-3.558,4.121L544.922,91.2Z" transform="translate(-338.422 40.396)" fill="#666"/>
        <path d="M585.409,87.423l4.5,4.6-5.545,22.593.057.059,14.131-13.8,4.235,4.336-21.064,20.572-4.524-4.631,5.544-22.536-.057-.059-14.1,13.774L564.344,108Z" transform="translate(-327.038 51.241)" fill="#666"/>
        <path d="M604.922,118.5l-5.645-6.789,4.187-3.478,15.425,18.553-4.184,3.48-5.645-6.785L590.6,138.824l-4.14-4.979Z" transform="translate(-314.074 63.438)" fill="#666"/>
        <path d="M633.927,144.652l7.068,11.238c3.905,6.213,1.475,11.1-2.573,13.645s-9.507,2.619-13.414-3.6l-3.619-5.758-8.935,5.618-3.447-5.48ZM625.645,157.5l2.677,4.259c1.6,2.547,3.585,4.465,6.762,2.47s2.308-4.619.707-7.165l-2.677-4.259Z" transform="translate(-300.86 84.785)" fill="#666"/>
        <path d="M652.139,171.507l3.085,5.878L634.273,200.82l-3.123-5.95,4.769-5.02L630.8,180.1l-6.879,1-3.049-5.805Zm-16.28,7.851,3.547,6.752,7.84-8.308-.038-.073Z" transform="translate(-293.904 100.526)" fill="#666"/>
        <path d="M656.775,199.709l-3.5-8.1,5-2.162,9.577,22.15-5,2.159-3.5-8.1-22.035,9.53-2.57-5.945Z" transform="translate(-285.777 111.04)" fill="#666"/>
        <path d="M666.658,224.144,663.8,215.8l5.15-1.764,7.812,22.821-5.15,1.762-2.858-8.348-22.706,7.772-2.1-6.124Z" transform="translate(-280.377 125.451)" fill="#666"/>
        <path d="M678.825,240.811l5.431,21.338-5.274,1.343-3.834-15.065-6.115,1.556,3.518,13.825-4.873,1.24-3.521-13.825-6.992,1.781,3.916,15.384-5.274,1.34-5.515-21.655Z" transform="translate(-276.66 141.147)" fill="#666"/>
        <path d="M685.3,267.73l2.612,15.666c.871,5.209-2.2,9.108-6.6,9.84-3.42.569-6.213-.385-8.051-3.385l-.081.014c-.292,3.271-3.194,4.673-6.089,5.366-1.811.427-5.237.955-6.674,2.368l-1.066-6.389c1.7-1.079,4.525-1.466,6.789-2.176,2.977-.958,4.124-2.363,3.588-5.577l-1.066-6.387-11.354,1.892-1.064-6.387Zm-12.078,8.581,1.167,7c.476,2.849,1.954,4.191,4.885,3.7,2.806-.468,3.77-2.219,3.294-5.066l-1.167-7Z" transform="translate(-273.169 156.925)" fill="#666"/>
        <path d="M689.67,297.047l.5,6.414-18.737,13.791,0,.079,19.7-1.535.473,6.043-29.356,2.292-.5-6.456,18.7-13.745-.006-.082-19.652,1.537-.473-6.043Z" transform="translate(-270.787 174.108)" fill="#666"/>
        <path d="M671.969,332.1c-3.918-.027-5.463,3.015-5.485,6.479-.014,2.268.623,5.735,3.634,5.756,3.175.019,3.739-4.39,4.922-8.711,1.183-4.363,2.9-8.765,8.426-8.728,6.021.038,8.871,5.747,8.836,11.065-.038,6.145-2.755,11.775-9.558,11.733l.04-6.268c3.548-.184,4.471-2.693,4.489-5.785.014-2.063-.836-4.46-3.31-4.474-2.268-.016-2.566,1.386-4.508,8.755-.55,2.14-1.954,8.729-8.635,8.686-5.4-.035-9.414-4.308-9.365-12.307.041-6.513,3.3-12.6,10.554-12.469Z" transform="translate(-270.119 190.976)" fill="#666"/>
      </g>
      <g transform="translate(270.604 968.087)">
        <path d="M490.569,626.7l-6.555,23.736,13.252-6.029,2.255,4.957-21.1,9.6-2.119-4.655,6.557-23.736L468.1,637.282l-2.252-4.955,22.6-10.283Z" transform="translate(2.446 -603.488)" fill="#666"/>
        <path d="M460.939,664.688c-8.589,3.042-15.914-1.581-18.832-9.821-2.838-8.007-.054-16.209,8.535-19.251s15.914,1.58,18.75,9.587C472.308,653.443,469.53,661.646,460.939,664.688Zm-8.481-23.943c-5.48,1.941-5.888,7.334-4.249,11.959,1.721,4.857,5.432,8.793,10.913,6.851s5.888-7.334,4.167-12.191C461.651,642.739,457.938,638.8,452.458,640.746Z" transform="translate(-12.099 -596.085)" fill="#666"/>
        <path d="M443.329,670.713l-6.233,1.594-16.8-16.1-.081.021,4.892,19.145-5.873,1.5-7.293-28.536,6.275-1.605L434.963,662.8l.079-.021-4.881-19.107,5.875-1.5Z" transform="translate(-29.156 -591.687)" fill="#666"/>
        <path d="M412.331,677.7l-21.725,3.612-.891-5.37,15.335-2.549-1.036-6.226-14.075,2.341-.825-4.963,14.077-2.341-1.183-7.12-15.663,2.606-.895-5.371,22.052-3.669Z" transform="translate(-44.68 -587.891)" fill="#666"/>
        <path d="M359,677.853l8.821-.3.186,5.442-24.114.823-.186-5.442,8.82-.3-.818-23.992,6.473-.221Z" transform="translate(-69.146 -584.839)" fill="#666"/>
        <path d="M339.826,683.966l-15.86-.744c-5.271-.247-8.435-4.07-8.227-8.519.163-3.459,1.686-5.989,5-7.153l0-.082c-3.134-.972-3.9-4.105-3.961-7.081-.038-1.859.165-5.318-.912-7.02l6.467.3c.7,1.891.481,4.728.7,7.092.308,3.11,1.437,4.527,4.692,4.679l6.467.3.539-11.493,6.468.3Zm-5.843-13.609-7.084-.332c-2.885-.135-4.508,1.028-4.647,3.994-.133,2.841,1.374,4.151,4.257,4.286l7.085.333Z" transform="translate(-85.545 -585.129)" fill="#666"/>
        <path d="M301.414,681.628l-6.584-.869-7.052-30.642,6.663.883,1.348,6.793,10.917,1.447,3.152-6.2,6.5.861ZM304.4,663.8l-7.567-1L299.1,674l.082.011Z" transform="translate(-101.928 -587.034)" fill="#666"/>
        <path d="M275.692,677.4l-6.343-1.286,5.845-28.849,6.345,1.285Z" transform="translate(-112.73 -588.704)" fill="#666"/>
        <path d="M264.338,675.281l-6.2-1.721-6.552-22.317-.081-.022-5.287,19.027-5.837-1.62,7.877-28.366,6.24,1.732,6.524,22.268.079.021,5.275-18.989,5.839,1.622Z" transform="translate(-129.708 -592.81)" fill="#666"/>
        <path d="M229.136,664.714l-6.1-2.175,9.891-27.745,6.1,2.175Z" transform="translate(-139.877 -596.014)" fill="#666"/>
        <path d="M218.155,660.885l-5.891-2.584-3.318-23.031-.076-.033-7.937,18.093-5.553-2.436,11.831-26.968,5.929,2.6,3.3,22.977.076.032,7.92-18.053,5.551,2.436Z" transform="translate(-156.086 -602.384)" fill="#666"/>
        <path d="M183.239,615.578a9.972,9.972,0,0,1,9.033.354c7.986,4.4,9.4,12.943,5.307,20.388-4.213,7.663-12.193,11.041-20.18,6.646-5.275-2.9-8.473-8.9-5.869-15.092l5.421,2.982a6.032,6.032,0,0,0,3.072,7.339c5.1,2.8,9.4-.479,11.882-5,2.366-4.3,2.836-9.691-2.26-12.5-3.685-2.027-6.911-1.212-9.2,2.187l5.708,3.139-2.327,4.229-10.841-5.962,7.674-13.95,3.615,1.988Z" transform="translate(-170.606 -610.345)" fill="#666"/>
      </g>
    </g>
  </g>
</svg>